<?xml version="1.0" encoding="UTF-8" standalone="no"?>
<!-- Created with Inkscape (http://www.inkscape.org/) -->
<svg
   xmlns:dc="http://purl.org/dc/elements/1.1/"
   xmlns:cc="http://creativecommons.org/ns#"
   xmlns:rdf="http://www.w3.org/1999/02/22-rdf-syntax-ns#"
   xmlns:svg="http://www.w3.org/2000/svg"
   xmlns="http://www.w3.org/2000/svg"
   xmlns:sodipodi="http://sodipodi.sourceforge.net/DTD/sodipodi-0.dtd"
   xmlns:inkscape="http://www.inkscape.org/namespaces/inkscape"
   width="24"
   height="32"
   id="svg2415"
   sodipodi:version="0.32"
   inkscape:version="0.46"
   sodipodi:docname="eighth.svg"
   inkscape:output_extension="org.inkscape.output.svg.inkscape"
   version="1.0">
  <defs
     id="defs2417">
    <inkscape:perspective
       sodipodi:type="inkscape:persp3d"
       inkscape:vp_x="0 : 526.18109 : 1"
       inkscape:vp_y="0 : 1000 : 0"
       inkscape:vp_z="744.09448 : 526.18109 : 1"
       inkscape:persp3d-origin="372.04724 : 350.78739 : 1"
       id="perspective2423" />
  </defs>
  <sodipodi:namedview
     id="base"
     pagecolor="#ffffff"
     bordercolor="#666666"
     borderopacity="1.0"
     gridtolerance="10000"
     guidetolerance="10"
     objecttolerance="10"
     inkscape:pageopacity="0.0"
     inkscape:pageshadow="2"
     inkscape:zoom="4.6135382"
     inkscape:cx="1.9857809"
     inkscape:cy="33.335034"
     inkscape:document-units="px"
     inkscape:current-layer="layer1"
     showgrid="false"
     inkscape:window-width="694"
     inkscape:window-height="719"
     inkscape:window-x="-4"
     inkscape:window-y="33"
     width="16px" />
  <metadata
     id="metadata2420">
    <rdf:RDF>
      <cc:Work
         rdf:about="">
        <dc:format>image/svg+xml</dc:format>
        <dc:type
           rdf:resource="http://purl.org/dc/dcmitype/StillImage" />
      </cc:Work>
    </rdf:RDF>
  </metadata>
  <g
     inkscape:label="Layer 1"
     inkscape:groupmode="layer"
     id="layer1"
     transform="translate(-210.8305,-359.90216)">
    <path
       style="font-size:7.02919579px;font-family:Emmentaler"
       d="M 222.08041,367.77086 L 222.08041,370.40272 L 222.33307,370.40272 L 222.60679,370.40272 L 222.85942,370.69748 C 223.89594,371.86514 224.65479,372.89859 225.136,373.79781 C 225.61718,374.69702 225.85492,375.53044 225.84923,376.29808 C 225.84833,376.87357 225.77641,377.47539 225.63341,378.10354 C 225.49041,378.73166 225.28161,379.344 225.00702,379.94057 C 224.96667,380.03969 224.94211,380.10987 224.93333,380.15112 C 224.92456,380.19234 224.92105,380.24147 224.92282,380.2985 C 224.93465,380.43578 224.9794,380.55071 225.05704,380.64328 C 225.13468,380.73582 225.23731,380.80337 225.36497,380.84593 C 225.53559,380.89724 225.68913,380.8946 225.82554,380.83804 C 225.96195,380.78144 226.0681,380.67879 226.14398,380.53011 C 226.19268,380.41561 226.26373,380.21822 226.35716,379.93794 C 226.45059,379.65763 226.52694,379.41287 226.58616,379.20365 C 226.78703,378.47944 226.91688,377.77498 226.97565,377.09027 C 227.03445,376.40554 227.01689,375.79056 226.92302,375.24534 C 226.87916,374.99004 226.81422,374.72158 226.72826,374.43999 C 226.64229,374.15837 226.54578,373.87939 226.43875,373.60306 C 226.28129,373.23283 226.08039,372.83104 225.83605,372.39766 C 225.59175,371.96428 225.2382,371.38352 224.77542,370.65537 C 224.25781,369.82283 223.86129,369.14556 223.58583,368.62358 C 223.31034,368.10159 223.1033,367.61382 222.96471,367.16027 C 222.85768,366.85497 222.77171,366.52862 222.70677,366.18121 C 222.64186,365.83381 222.60853,365.52851 222.60679,365.26533 L 222.60679,365.139 L 222.35413,365.139 L 222.08041,365.139 L 222.08041,367.77086 L 222.08041,367.77086 z"
       id="text951" />
    <path
       d="M 222.13301,364.92845 L 222.39621,364.92845 C 222.51285,364.92845 222.60676,365.02235 222.60676,365.139 L 222.60676,382.15253 C 222.60676,382.26918 222.51285,382.36308 222.39621,382.36308 L 222.13301,382.36308 C 222.01637,382.36308 221.92246,382.26918 221.92246,382.15253 L 221.92246,365.139 C 221.92246,365.02235 222.01637,364.92845 222.13301,364.92845 z"
       id="rect957" />
    <path
       style="font-size:7.02919579px;font-family:Emmentaler"
       d="M 219.4475,380.34085 C 218.68643,380.45622 217.99776,380.73081 217.38149,381.16462 C 216.76519,381.59844 216.30285,382.13095 215.99448,382.76216 C 215.87958,382.99771 215.79885,383.21616 215.75236,383.4175 C 215.70587,383.61883 215.68832,383.84254 215.69973,384.08862 C 215.69883,384.22986 215.7006,384.33689 215.70497,384.4097 C 215.70938,384.48252 215.72166,384.55796 215.74185,384.63605 C 215.8844,385.1554 216.16776,385.56421 216.59194,385.86249 C 217.01608,386.16077 217.54684,386.32745 218.18419,386.36255 C 219.11061,386.37351 219.97385,386.10944 220.77394,385.57036 C 221.57404,385.03126 222.12145,384.34084 222.41622,383.49908 C 222.46753,383.33766 222.50177,383.19203 222.51887,383.0622 C 222.53598,382.93236 222.54386,382.7762 222.54257,382.59372 C 222.54344,382.45292 222.54167,382.34501 222.5373,382.27 C 222.53289,382.195 222.52061,382.11341 222.50045,382.02524 C 222.44606,381.83224 222.36533,381.6445 222.25831,381.46202 C 222.15128,381.27955 222.02847,381.12339 221.88984,380.99355 C 221.54945,380.69528 221.11434,380.49175 220.58446,380.38296 C 220.43445,380.35226 220.24493,380.33471 220.01596,380.33032 C 219.78699,380.32594 219.59751,380.32945 219.4475,380.34085 L 219.4475,380.34085 z"
       id="text967" />
  </g>
</svg>
