<?xml version="1.0" encoding="UTF-8" standalone="no"?>
<!-- Created with Inkscape (http://www.inkscape.org/) -->
<svg
   xmlns:dc="http://purl.org/dc/elements/1.1/"
   xmlns:cc="http://creativecommons.org/ns#"
   xmlns:rdf="http://www.w3.org/1999/02/22-rdf-syntax-ns#"
   xmlns:svg="http://www.w3.org/2000/svg"
   xmlns="http://www.w3.org/2000/svg"
   xmlns:sodipodi="http://sodipodi.sourceforge.net/DTD/sodipodi-0.dtd"
   xmlns:inkscape="http://www.inkscape.org/namespaces/inkscape"
   width="24"
   height="32"
   id="svg2415"
   sodipodi:version="0.32"
   inkscape:version="0.46"
   sodipodi:docname="half.svg"
   inkscape:output_extension="org.inkscape.output.svg.inkscape"
   version="1.0">
  <defs
     id="defs2417">
    <inkscape:perspective
       sodipodi:type="inkscape:persp3d"
       inkscape:vp_x="0 : 526.18109 : 1"
       inkscape:vp_y="0 : 1000 : 0"
       inkscape:vp_z="744.09448 : 526.18109 : 1"
       inkscape:persp3d-origin="372.04724 : 350.78739 : 1"
       id="perspective2423" />
  </defs>
  <sodipodi:namedview
     id="base"
     pagecolor="#ffffff"
     bordercolor="#666666"
     borderopacity="1.0"
     gridtolerance="10000"
     guidetolerance="10"
     objecttolerance="10"
     inkscape:pageopacity="0.0"
     inkscape:pageshadow="2"
     inkscape:zoom="4.6135382"
     inkscape:cx="1.9857809"
     inkscape:cy="33.335034"
     inkscape:document-units="px"
     inkscape:current-layer="layer1"
     showgrid="false"
     inkscape:window-width="694"
     inkscape:window-height="719"
     inkscape:window-x="-4"
     inkscape:window-y="33"
     width="16px" />
  <metadata
     id="metadata2420">
    <rdf:RDF>
      <cc:Work
         rdf:about="">
        <dc:format>image/svg+xml</dc:format>
        <dc:type
           rdf:resource="http://purl.org/dc/dcmitype/StillImage" />
      </cc:Work>
    </rdf:RDF>
  </metadata>
  <g
     inkscape:label="Layer 1"
     inkscape:groupmode="layer"
     id="layer1"
     transform="translate(-210.8305,-359.90216)">
    <path
       d="M 222.55244,365.28133 L 222.81563,365.28133 C 222.93227,365.28133 223.02618,365.37523 223.02618,365.49188 L 223.02618,382.11814 C 223.02618,382.23479 222.93227,382.32869 222.81563,382.32869 L 222.55244,382.32869 C 222.43579,382.32869 222.34188,382.23479 222.34188,382.11814 L 222.34188,365.49188 C 222.34188,365.37523 222.43579,365.28133 222.55244,365.28133 z"
       id="rect873" />
    <path
       style="font-size:7.02919579px;font-family:Emmentaler"
       d="M 220.17324,380.69373 C 219.44904,380.72926 218.79195,380.85296 218.20198,381.06482 C 217.612,381.27669 217.13914,381.55303 216.78341,381.89386 C 216.5404,382.14959 216.3316,382.47506 216.15702,382.87028 C 215.98244,383.2655 215.84734,383.71203 215.75172,384.20989 C 215.67934,384.66827 215.6925,385.07797 215.79119,385.43897 C 215.88989,385.79997 216.06622,386.07807 216.3202,386.27327 C 216.52417,386.44039 216.78472,386.55882 217.10186,386.62857 C 217.419,386.69831 217.8322,386.72726 218.34147,386.71542 C 218.77791,386.70577 219.1683,386.67243 219.51264,386.61541 C 219.85698,386.55838 220.18947,386.47241 220.51012,386.35749 C 220.95183,386.20133 221.32643,386.01886 221.63393,385.81006 C 221.94141,385.60127 222.18442,385.35563 222.36295,385.07314 C 222.6213,384.68319 222.82045,384.22086 222.96038,383.68615 C 223.1003,383.15145 223.1468,382.67333 223.09987,382.25179 C 222.9981,381.40609 222.52787,380.90779 221.68919,380.75689 C 221.52207,380.71479 221.29836,380.68847 221.01807,380.67794 C 220.73777,380.66741 220.45616,380.67268 220.17324,380.69373 L 220.17324,380.69373 z M 221.56287,381.70436 C 221.67866,381.72717 221.77867,381.7763 221.8629,381.85175 C 221.94711,381.9272 222.01554,382.01843 222.06818,382.12546 C 222.08835,382.17415 222.10064,382.21889 222.10503,382.25968 C 222.10941,382.30048 222.11116,382.36101 222.11029,382.44128 C 222.1116,382.53033 222.10897,382.59437 222.10239,382.63341 C 222.09581,382.67245 222.07739,382.7207 222.04713,382.77816 C 221.97211,382.93958 221.80104,383.13259 221.53392,383.35717 C 221.26678,383.58176 220.84831,383.88003 220.27852,384.252 C 219.50079,384.77136 218.90336,385.14332 218.48622,385.36791 C 218.06907,385.5925 217.76114,385.7118 217.56244,385.72584 C 217.39092,385.73549 217.23389,385.7004 217.09133,385.62057 C 216.94877,385.54073 216.83911,385.42142 216.76235,385.26264 C 216.74217,385.21394 216.72989,385.1692 216.7255,385.12841 C 216.72112,385.08761 216.71936,385.02708 216.72024,384.94681 C 216.71892,384.85777 216.72155,384.79373 216.72813,384.75469 C 216.73472,384.71565 216.75314,384.6674 216.78341,384.60993 C 216.86543,384.43053 217.08563,384.1998 217.444,383.91775 C 217.80237,383.63571 218.37524,383.24181 219.16261,382.73605 C 219.74644,382.3597 220.21052,382.08598 220.55486,381.91491 C 220.89919,381.74384 221.15799,381.65962 221.33126,381.66225 C 221.35406,381.6627 221.3874,381.66708 221.43127,381.67541 C 221.47513,381.68375 221.519,381.6934 221.56287,381.70436 L 221.56287,381.70436 z"
       id="text883" />
  </g>
</svg>
