<?xml version="1.0" encoding="UTF-8" standalone="no"?>
<!-- Created with Inkscape (http://www.inkscape.org/) -->
<svg
   xmlns:dc="http://purl.org/dc/elements/1.1/"
   xmlns:cc="http://creativecommons.org/ns#"
   xmlns:rdf="http://www.w3.org/1999/02/22-rdf-syntax-ns#"
   xmlns:svg="http://www.w3.org/2000/svg"
   xmlns="http://www.w3.org/2000/svg"
   xmlns:sodipodi="http://sodipodi.sourceforge.net/DTD/sodipodi-0.dtd"
   xmlns:inkscape="http://www.inkscape.org/namespaces/inkscape"
   width="24"
   height="32"
   id="svg2415"
   sodipodi:version="0.32"
   inkscape:version="0.46"
   sodipodi:docname="quarter.svg"
   inkscape:output_extension="org.inkscape.output.svg.inkscape"
   version="1.0">
  <defs
     id="defs2417">
    <inkscape:perspective
       sodipodi:type="inkscape:persp3d"
       inkscape:vp_x="0 : 526.18109 : 1"
       inkscape:vp_y="0 : 1000 : 0"
       inkscape:vp_z="744.09448 : 526.18109 : 1"
       inkscape:persp3d-origin="372.04724 : 350.78739 : 1"
       id="perspective2423" />
  </defs>
  <sodipodi:namedview
     id="base"
     pagecolor="#ffffff"
     bordercolor="#666666"
     borderopacity="1.0"
     gridtolerance="10000"
     guidetolerance="10"
     objecttolerance="10"
     inkscape:pageopacity="0.0"
     inkscape:pageshadow="2"
     inkscape:zoom="4.6135382"
     inkscape:cx="1.9857809"
     inkscape:cy="33.335034"
     inkscape:document-units="px"
     inkscape:current-layer="layer1"
     showgrid="false"
     inkscape:window-width="694"
     inkscape:window-height="719"
     inkscape:window-x="-4"
     inkscape:window-y="33"
     width="16px" />
  <metadata
     id="metadata2420">
    <rdf:RDF>
      <cc:Work
         rdf:about="">
        <dc:format>image/svg+xml</dc:format>
        <dc:type
           rdf:resource="http://purl.org/dc/dcmitype/StillImage" />
      </cc:Work>
    </rdf:RDF>
  </metadata>
  <g
     inkscape:label="Layer 1"
     inkscape:groupmode="layer"
     id="layer1"
     transform="translate(-210.8305,-359.90216)">
    <path
       d="M 222.25251,364.87693 L 222.5157,364.87693 C 222.63234,364.87693 222.72625,364.97084 222.72625,365.08748 L 222.72625,382.10102 C 222.72625,382.21766 222.63234,382.31157 222.5157,382.31157 L 222.25251,382.31157 C 222.13586,382.31157 222.04196,382.21766 222.04196,382.10102 L 222.04196,365.08748 C 222.04196,364.97084 222.13586,364.87693 222.25251,364.87693 z"
       id="rect857" />
    <path
       style="font-size:7.02919579px;font-family:Emmentaler"
       d="M 219.56696,380.28934 C 218.80591,380.4047 218.11724,380.67929 217.50095,381.11311 C 216.88466,381.54693 216.42233,382.07944 216.11396,382.71065 C 215.99904,382.9462 215.91833,383.16464 215.87183,383.36598 C 215.82533,383.56731 215.80779,383.79103 215.81919,384.0371 C 215.81832,384.17835 215.82007,384.28537 215.82446,384.35819 C 215.82884,384.431 215.84113,384.50645 215.8613,384.58453 C 216.00386,385.10388 216.28723,385.5127 216.71139,385.81097 C 217.13556,386.10925 217.66632,386.27594 218.30367,386.31103 C 219.23008,386.32199 220.09333,386.05793 220.89342,385.51884 C 221.6935,384.97975 222.24092,384.28932 222.5357,383.44757 C 222.58701,383.28615 222.62123,383.14052 222.63834,383.01068 C 222.65544,382.88084 222.66334,382.72468 222.66203,382.54221 C 222.66289,382.4014 222.66114,382.2935 222.65676,382.21849 C 222.65237,382.14348 222.64009,382.06189 222.61992,381.97373 C 222.56552,381.78072 222.48481,381.59299 222.37779,381.41051 C 222.27075,381.22803 222.14793,381.07188 222.00933,380.94204 C 221.66893,380.64376 221.2338,380.44023 220.70392,380.33145 C 220.5539,380.30074 220.36441,380.2832 220.13544,380.27881 C 219.90646,380.27443 219.71697,380.27793 219.56696,380.28934 L 219.56696,380.28934 z"
       id="text867" />
  </g>
</svg>
