<?xml version="1.0" encoding="UTF-8" standalone="no"?>
<!-- Created with Inkscape (http://www.inkscape.org/) -->
<svg
   xmlns:dc="http://purl.org/dc/elements/1.1/"
   xmlns:cc="http://creativecommons.org/ns#"
   xmlns:rdf="http://www.w3.org/1999/02/22-rdf-syntax-ns#"
   xmlns:svg="http://www.w3.org/2000/svg"
   xmlns="http://www.w3.org/2000/svg"
   xmlns:sodipodi="http://sodipodi.sourceforge.net/DTD/sodipodi-0.dtd"
   xmlns:inkscape="http://www.inkscape.org/namespaces/inkscape"
   width="24"
   height="32"
   id="svg2415"
   sodipodi:version="0.32"
   inkscape:version="0.46"
   sodipodi:docname="sixteenth.svg"
   inkscape:output_extension="org.inkscape.output.svg.inkscape"
   version="1.0">
  <defs
     id="defs2417">
    <inkscape:perspective
       sodipodi:type="inkscape:persp3d"
       inkscape:vp_x="0 : 526.18109 : 1"
       inkscape:vp_y="0 : 1000 : 0"
       inkscape:vp_z="744.09448 : 526.18109 : 1"
       inkscape:persp3d-origin="372.04724 : 350.78739 : 1"
       id="perspective2423" />
  </defs>
  <sodipodi:namedview
     id="base"
     pagecolor="#ffffff"
     bordercolor="#666666"
     borderopacity="1.0"
     gridtolerance="10000"
     guidetolerance="10"
     objecttolerance="10"
     inkscape:pageopacity="0.0"
     inkscape:pageshadow="2"
     inkscape:zoom="4.6135382"
     inkscape:cx="1.9857809"
     inkscape:cy="33.335034"
     inkscape:document-units="px"
     inkscape:current-layer="layer1"
     showgrid="false"
     inkscape:window-width="694"
     inkscape:window-height="719"
     inkscape:window-x="-4"
     inkscape:window-y="33"
     width="16px" />
  <metadata
     id="metadata2420">
    <rdf:RDF>
      <cc:Work
         rdf:about="">
        <dc:format>image/svg+xml</dc:format>
        <dc:type
           rdf:resource="http://purl.org/dc/dcmitype/StillImage" />
      </cc:Work>
    </rdf:RDF>
  </metadata>
  <g
     inkscape:label="Layer 1"
     inkscape:groupmode="layer"
     id="layer1"
     transform="translate(-210.8305,-359.90216)">
    <path
       style="font-size:7.02919579px;font-family:Emmentaler"
       d="M 222.39162,370.42165 L 222.39162,375.68536 L 222.66534,375.68536 L 222.918,375.68536 L 222.918,374.90633 L 222.918,374.10625 L 223.31803,374.52735 C 223.75709,374.96685 224.1317,375.37216 224.44184,375.74326 C 224.75195,376.11434 225.01602,376.46702 225.23403,376.80127 C 225.60072,377.36141 225.85689,377.88865 226.00252,378.38302 C 226.14816,378.87736 226.19378,379.38881 226.13938,379.91739 C 226.09859,380.36742 226.01699,380.80431 225.89463,381.22806 C 225.77224,381.65177 225.60117,382.07813 225.3814,382.50714 C 225.31077,382.64661 225.26779,382.74136 225.25245,382.79138 C 225.23708,382.84137 225.23094,382.89401 225.23403,382.94929 C 225.24586,383.08657 225.29061,383.2015 225.36825,383.29407 C 225.44589,383.3866 225.54851,383.45415 225.67618,383.49672 C 225.86567,383.55636 226.0341,383.54232 226.1815,383.45461 C 226.27052,383.41204 226.34511,383.34449 226.40519,383.25196 C 226.46528,383.15939 226.54511,382.9813 226.64471,382.71769 C 226.8013,382.32333 226.93026,381.93294 227.03159,381.54651 C 227.13289,381.16005 227.21449,380.74334 227.27634,380.29638 C 227.2974,380.0845 227.30791,379.81342 227.30791,379.48314 C 227.30791,379.15282 227.2974,378.89753 227.27634,378.71726 C 227.23336,378.46415 227.17195,378.21237 227.09213,377.96192 C 227.01227,377.71144 226.91929,377.46493 226.81314,377.22237 L 226.68682,376.94865 L 226.79208,376.73811 C 227.0658,376.11786 227.19738,375.47919 227.18687,374.82212 C 227.17633,374.16502 227.02368,373.48424 226.72891,372.77979 C 226.58372,372.43369 226.37404,372.04155 226.0999,371.60335 C 225.82574,371.16514 225.41079,370.54665 224.85502,369.74789 C 224.36684,369.05527 223.99047,368.46661 223.72597,367.98191 C 223.46145,367.49721 223.26933,367.04014 223.1496,366.61072 C 223.07547,366.39271 223.01843,366.16023 222.9785,365.91327 C 222.93861,365.66631 222.91842,365.44962 222.918,365.2632 L 222.918,365.15793 L 222.66534,365.15793 L 222.39162,365.15793 L 222.39162,370.42165 L 222.39162,370.42165 z M 223.59175,370.33743 C 224.28305,371.09934 224.82168,371.79679 225.2077,372.42975 C 225.59371,373.06271 225.84811,373.67067 225.97095,374.25363 C 226.00339,374.43171 226.02268,374.63349 226.02885,374.85896 C 226.03499,375.08441 226.02268,375.27566 225.99201,375.43271 C 225.98015,375.48665 225.967,375.53139 225.95253,375.56693 C 225.93803,375.60245 225.93016,375.62087 225.92884,375.6222 C 225.92707,375.63052 225.90952,375.61385 225.87618,375.57219 C 225.84284,375.53051 225.80426,375.477 225.76038,375.41165 C 225.7038,375.3419 225.61696,375.22346 225.49984,375.05635 C 225.38272,374.88922 225.25901,374.71288 225.12874,374.52735 C 224.84274,374.12993 224.62519,373.82463 224.47605,373.61146 C 224.32691,373.39827 224.19355,373.19825 224.07601,373.0114 C 223.79265,372.57099 223.56455,372.15165 223.39172,371.75337 C 223.21888,371.35507 223.09607,370.96731 223.02326,370.59008 C 222.99124,370.44708 222.9658,370.29619 222.94693,370.13741 C 222.92806,369.97861 222.91842,369.84877 222.918,369.74789 L 222.918,369.62156 L 223.08643,369.81106 L 223.59175,370.33743 L 223.59175,370.33743 z"
       id="text929" />
    <path
       d="M 222.44422,364.94738 L 222.70742,364.94738 C 222.82406,364.94738 222.91797,365.04128 222.91797,365.15793 L 222.91797,382.17146 C 222.91797,382.28811 222.82406,382.38201 222.70742,382.38201 L 222.44422,382.38201 C 222.32758,382.38201 222.23367,382.28811 222.23367,382.17146 L 222.23367,365.15793 C 222.23367,365.04128 222.32758,364.94738 222.44422,364.94738 z"
       id="rect935" />
    <path
       style="font-size:7.02919579px;font-family:Emmentaler"
       d="M 219.75874,380.35978 C 218.9977,380.47515 218.30903,380.74974 217.69273,381.18355 C 217.07643,381.61737 216.61412,382.14988 216.30575,382.78109 C 216.19081,383.01664 216.11012,383.23509 216.06363,383.43643 C 216.01711,383.63776 215.99959,383.86147 216.01097,384.10755 C 216.0101,384.24879 216.01187,384.35582 216.01624,384.42863 C 216.02062,384.50145 216.0329,384.57689 216.05309,384.65498 C 216.19564,385.17433 216.479,385.58314 216.90318,385.88142 C 217.32735,386.1797 217.85811,386.34638 218.49546,386.38148 C 219.42188,386.39244 220.28512,386.12837 221.08521,385.58929 C 221.88528,385.05019 222.43272,384.35977 222.72749,383.51801 C 222.7788,383.35659 222.81301,383.21096 222.83011,383.08113 C 222.84722,382.95129 222.85512,382.79513 222.85381,382.61265 C 222.85468,382.47185 222.85294,382.36394 222.84854,382.28893 C 222.84416,382.21393 222.83188,382.13234 222.81169,382.04417 C 222.7573,381.85117 222.6766,381.66343 222.56957,381.48095 C 222.46255,381.29848 222.33971,381.14232 222.20111,381.01248 C 221.86072,380.71421 221.42558,380.51068 220.89572,380.40189 C 220.74569,380.37119 220.5562,380.35364 220.32723,380.34925 C 220.09826,380.34487 219.90875,380.34838 219.75874,380.35978 L 219.75874,380.35978 z"
       id="text945" />
  </g>
</svg>
