<?xml version="1.0" encoding="UTF-8" standalone="no"?>
<!-- Created with Inkscape (http://www.inkscape.org/) -->
<svg
   xmlns:dc="http://purl.org/dc/elements/1.1/"
   xmlns:cc="http://creativecommons.org/ns#"
   xmlns:rdf="http://www.w3.org/1999/02/22-rdf-syntax-ns#"
   xmlns:svg="http://www.w3.org/2000/svg"
   xmlns="http://www.w3.org/2000/svg"
   xmlns:sodipodi="http://sodipodi.sourceforge.net/DTD/sodipodi-0.dtd"
   xmlns:inkscape="http://www.inkscape.org/namespaces/inkscape"
   width="24"
   height="32"
   id="svg2415"
   sodipodi:version="0.32"
   inkscape:version="0.46"
   sodipodi:docname="thirtysecond.svg"
   inkscape:output_extension="org.inkscape.output.svg.inkscape"
   version="1.0">
  <defs
     id="defs2417">
    <inkscape:perspective
       sodipodi:type="inkscape:persp3d"
       inkscape:vp_x="0 : 526.18109 : 1"
       inkscape:vp_y="0 : 1000 : 0"
       inkscape:vp_z="744.09448 : 526.18109 : 1"
       inkscape:persp3d-origin="372.04724 : 350.78739 : 1"
       id="perspective2423" />
  </defs>
  <sodipodi:namedview
     id="base"
     pagecolor="#ffffff"
     bordercolor="#666666"
     borderopacity="1.0"
     gridtolerance="10000"
     guidetolerance="10"
     objecttolerance="10"
     inkscape:pageopacity="0.0"
     inkscape:pageshadow="2"
     inkscape:zoom="4.6135382"
     inkscape:cx="1.9857809"
     inkscape:cy="33.335034"
     inkscape:document-units="px"
     inkscape:current-layer="layer1"
     showgrid="false"
     inkscape:window-width="694"
     inkscape:window-height="719"
     inkscape:window-x="-4"
     inkscape:window-y="33"
     width="16px" />
  <metadata
     id="metadata2420">
    <rdf:RDF>
      <cc:Work
         rdf:about="">
        <dc:format>image/svg+xml</dc:format>
        <dc:type
           rdf:resource="http://purl.org/dc/dcmitype/StillImage" />
      </cc:Work>
    </rdf:RDF>
  </metadata>
  <g
     inkscape:label="Layer 1"
     inkscape:groupmode="layer"
     id="layer1"
     transform="translate(-210.8305,-359.90216)">
    <path
       style="font-size:7.02919579px;font-family:Emmentaler"
       d="M 220.46047,371.35773 L 220.46047,379.25331 L 220.73419,379.25331 L 220.98685,379.25331 L 220.98685,378.15845 L 220.98685,377.08465 L 221.07105,377.14782 L 221.53425,377.58997 C 222.30188,378.32556 222.90371,379.01774 223.33972,379.66651 C 223.77573,380.31524 224.05118,380.92847 224.16612,381.50618 C 224.25912,382.01454 224.24157,382.59268 224.11349,383.24057 C 223.9854,383.88843 223.75731,384.52446 223.42919,385.14867 C 223.36866,385.26796 223.33181,385.35042 223.31866,385.39606 C 223.30551,385.44166 223.30024,385.49254 223.30288,385.54871 C 223.31471,385.68598 223.35946,385.80091 223.4371,385.89349 C 223.51474,385.98602 223.61739,386.05357 223.74503,386.09614 C 223.87443,386.13779 223.99987,386.14393 224.1214,386.11456 C 224.24289,386.08515 224.34201,386.02286 224.41878,385.9277 C 224.51047,385.81495 224.62714,385.5772 224.76882,385.21447 C 224.9105,384.85169 225.03244,384.47182 225.13464,384.07487 C 225.2715,383.52523 225.35046,382.99798 225.37152,382.49312 C 225.39258,381.98823 225.35573,381.51888 225.26099,381.08508 C 225.22675,380.92013 225.17412,380.73415 225.10307,380.52712 C 225.03199,380.32007 224.95831,380.13408 224.88198,379.96917 L 224.75567,379.71651 L 224.86093,379.50596 C 225.14474,378.81553 225.27719,378.133 225.25835,377.45838 C 225.23948,376.78373 225.07192,376.09068 224.75567,375.37921 L 224.65038,375.14761 L 224.71355,375.02128 C 224.76705,374.90239 224.81794,374.76641 224.8662,374.61334 C 224.91445,374.46024 224.9548,374.30847 224.98727,374.15803 C 225.00743,374.05318 225.01971,373.95756 225.02411,373.87115 C 225.02849,373.78473 225.03025,373.64173 225.02939,373.44216 C 225.03025,373.21844 225.02322,373.02369 225.00833,372.85789 C 224.99341,372.69207 224.96531,372.50784 224.9241,372.3052 C 224.77673,371.64898 224.48195,370.91908 224.0398,370.11549 C 223.92882,369.92424 223.7981,369.70667 223.64765,369.46279 C 223.49719,369.2189 223.29805,368.89606 223.05022,368.49427 L 222.43964,367.5468 C 221.9593,366.78838 221.60401,366.10498 221.37373,365.49658 C 221.14344,364.88818 221.01446,364.29426 220.98685,363.71481 L 220.98685,363.46216 L 220.71313,363.46216 L 220.46047,363.46216 L 220.46047,371.35773 L 220.46047,371.35773 z M 221.32371,368.32583 C 221.86719,369.00309 222.31197,369.60666 222.65806,370.13655 C 223.00415,370.66642 223.27523,371.16472 223.47131,371.63144 C 223.63141,372.00998 223.74808,372.38985 223.82135,372.77104 C 223.89458,373.15221 223.91127,373.47417 223.87134,373.73693 L 223.87134,373.82115 L 223.49236,373.29478 C 223.3827,373.15089 223.26513,372.99123 223.13969,372.81578 C 223.01424,372.64031 222.90722,372.49117 222.81861,372.36836 C 222.26854,371.60643 221.85799,370.9511 221.58691,370.40236 C 221.31583,369.85362 221.13685,369.30882 221.04999,368.76798 C 221.02719,368.6127 221.00964,368.43899 220.99736,368.24687 C 220.98508,368.05474 220.98858,367.95473 221.0079,367.94684 C 221.01054,367.96 221.04211,368.00211 221.10265,368.07317 C 221.16318,368.14423 221.23687,368.22845 221.32371,368.32583 L 221.32371,368.32583 z M 222.27118,373.84221 C 222.47558,374.07643 222.64578,374.28172 222.78177,374.45806 C 222.91773,374.63438 223.05636,374.82914 223.19759,375.04233 C 223.57615,375.60949 223.83495,376.14902 223.97399,376.66092 C 224.11304,377.17281 224.13496,377.66497 224.0398,378.1374 C 224.02926,378.20186 224.01874,378.25713 224.0082,378.3032 C 223.99769,378.34925 223.98714,378.3782 223.97663,378.39006 C 223.97312,378.41109 223.91696,378.34793 223.8082,378.20056 C 223.76213,378.13256 223.68581,378.02641 223.57923,377.88211 C 223.47263,377.73778 223.35946,377.58425 223.2397,377.42153 C 222.74843,376.77101 222.38347,376.26657 222.14486,375.90821 C 221.90622,375.54983 221.70972,375.19804 221.55531,374.85284 C 221.37505,374.47954 221.23555,374.10494 221.13685,373.72903 C 221.03816,373.35311 220.98816,373.00482 220.98685,372.68419 L 220.98685,372.49469 L 221.47111,373.00001 C 221.61366,373.143 221.76016,373.29389 221.91062,373.45269 C 222.06108,373.61147 222.18126,373.74131 222.27118,373.84221 L 222.27118,373.84221 z"
       id="text907" />
    <path
       d="M 220.51307,363.2516 L 220.77627,363.2516 C 220.89291,363.2516 220.98682,363.34551 220.98682,363.46215 L 220.98682,385.73947 C 220.98682,385.85611 220.89291,385.95002 220.77627,385.95002 L 220.51307,385.95002 C 220.39643,385.95002 220.30252,385.85611 220.30252,385.73947 L 220.30252,363.46215 C 220.30252,363.34551 220.39643,363.2516 220.51307,363.2516 z"
       id="rect913" />
    <path
       style="font-size:7.02919579px;font-family:Emmentaler"
       d="M 217.82761,383.92779 C 217.06655,384.04315 216.37788,384.31774 215.76158,384.75156 C 215.14531,385.18538 214.68297,385.71789 214.3746,386.3491 C 214.25966,386.58465 214.17897,386.80309 214.13248,387.00443 C 214.08596,387.20577 214.06844,387.42948 214.07982,387.67555 C 214.07895,387.8168 214.08072,387.92383 214.08509,387.99664 C 214.08949,388.06946 214.10178,388.1449 214.12193,388.22298 C 214.26452,388.74233 214.54788,389.15115 214.97202,389.44943 C 215.3962,389.7477 215.92695,389.91439 216.56431,389.94948 C 217.49072,389.96044 218.35396,389.69638 219.15406,389.15729 C 219.95413,388.6182 220.50156,387.92777 220.79634,387.08602 C 220.84765,386.9246 220.88186,386.77897 220.89899,386.64913 C 220.91606,386.51929 220.92397,386.36314 220.92265,386.18066 C 220.92352,386.03986 220.92179,385.93195 220.91741,385.85694 C 220.91301,385.78193 220.90073,385.70035 220.88057,385.61218 C 220.82614,385.41918 220.74545,385.23144 220.63842,385.04896 C 220.5314,384.86649 220.40856,384.71033 220.26996,384.58049 C 219.92957,384.28222 219.49443,384.07868 218.96457,383.9699 C 218.81453,383.9392 218.62505,383.92165 218.39608,383.91726 C 218.16711,383.91288 217.97762,383.91639 217.82761,383.92779 L 217.82761,383.92779 z"
       id="text923" />
  </g>
</svg>
