<?xml version="1.0" encoding="UTF-8" standalone="no"?>
<!-- Created with Inkscape (http://www.inkscape.org/) -->
<svg
   xmlns:dc="http://purl.org/dc/elements/1.1/"
   xmlns:cc="http://creativecommons.org/ns#"
   xmlns:rdf="http://www.w3.org/1999/02/22-rdf-syntax-ns#"
   xmlns:svg="http://www.w3.org/2000/svg"
   xmlns="http://www.w3.org/2000/svg"
   xmlns:sodipodi="http://sodipodi.sourceforge.net/DTD/sodipodi-0.dtd"
   xmlns:inkscape="http://www.inkscape.org/namespaces/inkscape"
   width="24"
   height="32"
   id="svg2415"
   sodipodi:version="0.32"
   inkscape:version="0.46"
   sodipodi:docname="whole.svg"
   inkscape:output_extension="org.inkscape.output.svg.inkscape"
   version="1.0">
  <defs
     id="defs2417">
    <inkscape:perspective
       sodipodi:type="inkscape:persp3d"
       inkscape:vp_x="0 : 526.18109 : 1"
       inkscape:vp_y="0 : 1000 : 0"
       inkscape:vp_z="744.09448 : 526.18109 : 1"
       inkscape:persp3d-origin="372.04724 : 350.78739 : 1"
       id="perspective2423" />
  </defs>
  <sodipodi:namedview
     id="base"
     pagecolor="#ffffff"
     bordercolor="#666666"
     borderopacity="1.0"
     gridtolerance="10000"
     guidetolerance="10"
     objecttolerance="10"
     inkscape:pageopacity="0.0"
     inkscape:pageshadow="2"
     inkscape:zoom="4.6135382"
     inkscape:cx="1.9857809"
     inkscape:cy="33.335034"
     inkscape:document-units="px"
     inkscape:current-layer="layer1"
     showgrid="false"
     inkscape:window-width="694"
     inkscape:window-height="719"
     inkscape:window-x="-4"
     inkscape:window-y="33"
     width="16px" />
  <metadata
     id="metadata2420">
    <rdf:RDF>
      <cc:Work
         rdf:about="">
        <dc:format>image/svg+xml</dc:format>
        <dc:type
           rdf:resource="http://purl.org/dc/dcmitype/StillImage" />
      </cc:Work>
    </rdf:RDF>
  </metadata>
  <g
     inkscape:label="Layer 1"
     inkscape:groupmode="layer"
     id="layer1"
     transform="translate(-210.8305,-359.90216)">
    <path
       style="font-size:7.02919579px;font-family:Emmentaler"
       d="M 220.97409,381.28388 C 219.84415,381.38389 218.88791,381.68393 218.10537,382.18398 C 217.32283,382.68403 216.86138,383.28936 216.72101,383.99996 C 216.63635,384.60222 216.82146,385.16631 217.27634,385.69224 C 217.73121,386.21817 218.39531,386.62962 219.26865,386.92659 C 219.81213,387.11695 220.39377,387.23626 221.01357,387.28452 C 221.63337,387.33277 222.25186,387.30469 222.86903,387.2003 C 223.963,387.02571 224.84906,386.66954 225.52721,386.13176 C 226.20534,385.59399 226.5545,384.97462 226.57469,384.27367 C 226.5545,383.58281 226.20534,382.96959 225.52721,382.434 C 224.84906,381.89842 223.963,381.54312 222.86903,381.3681 C 222.57031,381.3159 222.25712,381.28344 221.92946,381.27072 C 221.60179,381.258 221.28334,381.26239 220.97409,381.28388 L 220.97409,381.28388 z M 221.37414,382.06291 C 221.70575,382.13836 222.02157,382.26644 222.32161,382.44716 C 222.62163,382.62788 222.87429,382.85072 223.07958,383.11565 C 223.29188,383.40516 223.43576,383.73677 223.51121,384.1105 C 223.58665,384.48422 223.58314,384.86847 223.50068,385.26325 C 223.45988,385.48082 223.40461,385.66154 223.33487,385.80541 C 223.26512,385.94929 223.17301,386.07737 223.05853,386.18966 C 222.7041,386.54409 222.21282,386.61427 221.58469,386.40021 C 221.13946,386.25897 220.76661,386.0414 220.46615,385.74751 C 220.16567,385.45362 219.956,385.10972 219.83713,384.71582 C 219.75335,384.43597 219.71563,384.13769 219.72396,383.82099 C 219.7323,383.50429 219.78406,383.20602 219.87924,382.92616 C 219.91959,382.81255 219.96521,382.71342 220.0161,382.62876 C 220.06698,382.5441 220.13365,382.46076 220.21612,382.37873 C 220.36438,382.23135 220.53633,382.13134 220.73197,382.0787 C 220.92759,382.02607 221.14165,382.0208 221.37414,382.06291 L 221.37414,382.06291 z"
       id="text895" />
  </g>
</svg>
